<svg width="1161" height="232" viewBox="0 0 1161 232" fill="none" xmlns="http://www.w3.org/2000/svg">
<path d="M224.21 225.31C224.077 225.443 223.863 225.387 223.57 225.14C223.408 225.004 223.206 224.93 223 224.93C186.213 224.97 137.883 224.977 78.01 224.95C60.59 224.94 40.81 222.16 26.82 213.32C8.50996 201.75 0.629957 183.26 0.359957 162.01C0.23329 152.27 0.20329 120.767 0.269956 67.5C0.289956 47.03 5.64996 28.45 22.08 15.86C37.29 4.19998 57.61 1.09998 77.75 1.09998C107.71 1.09998 156.39 1.07998 223.79 1.03998C223.923 1.03998 224.05 1.09266 224.144 1.18642C224.237 1.28019 224.29 1.40737 224.29 1.53998L224.25 94.12C224.251 94.1678 224.24 94.2151 224.218 94.2575C224.196 94.2998 224.163 94.3357 224.123 94.3618C224.083 94.3879 224.036 94.4032 223.989 94.4064C223.941 94.4096 223.893 94.4005 223.85 94.38C223.77 94.3466 223.657 94.2533 223.51 94.1C223.44 94.0274 223.356 93.9696 223.261 93.9301C223.167 93.8906 223.064 93.8701 222.96 93.87H213.45C213.392 93.8705 213.336 93.8865 213.287 93.9164C213.237 93.9464 213.197 93.989 213.17 94.04C213.11 94.16 213.027 94.24 212.92 94.28C212.848 94.3108 212.769 94.3228 212.691 94.3151C212.612 94.3073 212.536 94.2799 212.468 94.2351C212.4 94.1904 212.342 94.1295 212.299 94.0574C212.256 93.9853 212.229 93.904 212.22 93.82C211.213 85 209.653 76.4666 207.54 68.22C205.02 58.4 200.7 49.4633 194.58 41.41C180.16 22.44 156.43 17.87 134 17.82C123.727 17.7933 113.397 17.7966 103.01 17.83C95.9233 17.8566 89.4566 19.2833 83.61 22.11C71.56 27.93 68.49 41.83 68.48 54.75C68.4733 77.1233 68.4733 116.123 68.48 171.75C68.48 185.22 72.23 199.41 85.95 204.84C91.29 206.953 97.0566 208.017 103.25 208.03C114.49 208.057 124.657 208.063 133.75 208.05C158.91 208 183.96 201.53 197.72 178.25C206.58 163.28 210.47 146.42 212.15 129.18C212.167 129.02 212.242 128.872 212.36 128.765C212.479 128.658 212.632 128.599 212.79 128.6H223.71C223.856 128.6 223.996 128.657 224.099 128.758C224.202 128.859 224.26 128.997 224.26 129.14L224.27 225.15C224.27 225.182 224.265 225.212 224.255 225.24C224.244 225.267 224.229 225.291 224.21 225.31Z" fill="#E71D1D"/>
<path d="M257.45 225.06C257.423 225.113 257.367 225.143 257.28 225.15C257.246 225.153 257.202 225.146 257.16 225.132C257.117 225.118 257.078 225.097 257.051 225.075C257.025 225.052 257.013 225.03 257.018 225.012C257.024 224.994 257.046 224.983 257.08 224.98C257.28 224.967 257.333 224.893 257.24 224.76C257.225 224.736 257.203 224.716 257.176 224.704C257.15 224.692 257.12 224.687 257.09 224.69C256.457 224.79 256.067 224.927 255.92 225.1C255.855 225.181 255.766 225.24 255.666 225.268C255.565 225.297 255.459 225.293 255.361 225.258C255.263 225.222 255.178 225.157 255.119 225.072C255.06 224.986 255.029 224.884 255.03 224.78C255.01 147.073 255.01 72.7066 255.03 1.67998C255.03 1.21998 255.297 0.953314 255.83 0.879981C255.883 0.873314 255.97 0.909981 256.09 0.989981C256.168 1.0482 256.259 1.07978 256.35 1.07998H322.9C323.153 1.08017 323.403 1.13585 323.631 1.24303C323.859 1.35022 324.06 1.50626 324.22 1.69998L461.22 168.67C461.231 168.683 461.246 168.692 461.263 168.695C461.279 168.699 461.296 168.698 461.312 168.691C461.327 168.684 461.34 168.673 461.349 168.658C461.358 168.644 461.362 168.627 461.36 168.61C461.273 167.763 461.243 145.147 461.27 100.76C461.277 89.0533 460.36 78.2033 458.52 68.21C457.753 64.0766 456.263 59.1566 454.05 53.45C442.83 24.54 414.24 14.78 385.89 12.35C385.712 12.3326 385.546 12.2502 385.426 12.1188C385.306 11.9875 385.239 11.8168 385.24 11.64V1.78998C385.24 1.6928 385.259 1.59657 385.296 1.50679C385.334 1.41701 385.388 1.33544 385.457 1.26672C385.525 1.19801 385.607 1.1435 385.697 1.10631C385.787 1.06912 385.883 1.04998 385.98 1.04998H478.56C478.632 1.04998 478.704 1.06395 478.77 1.09109C478.837 1.11822 478.898 1.158 478.949 1.20814C479 1.25829 479.041 1.31781 479.068 1.38333C479.096 1.44885 479.11 1.51907 479.11 1.58998L479.07 224.55C479.071 224.685 479.036 224.818 478.966 224.935C478.897 225.051 478.798 225.147 478.678 225.212C478.558 225.276 478.422 225.307 478.285 225.302C478.148 225.296 478.015 225.254 477.9 225.18C477.887 225.173 477.83 225.11 477.73 224.99C477.711 224.968 477.687 224.951 477.659 224.938C477.632 224.926 477.601 224.92 477.57 224.92L419.99 225C419.724 225 419.462 224.941 419.222 224.827C418.981 224.713 418.769 224.546 418.6 224.34L272.9 46.76C272.892 46.7465 272.88 46.7361 272.865 46.7305C272.85 46.7249 272.834 46.7243 272.819 46.7289C272.804 46.7335 272.791 46.743 272.782 46.7559C272.773 46.7688 272.769 46.7843 272.77 46.8C272.697 60.7467 272.7 87.73 272.78 127.75C272.8 137.93 273.723 147.767 275.55 157.26C277.47 167.227 281.24 176.297 286.86 184.47C300.66 204.56 326.52 211.26 349.4 213.61C349.538 213.624 349.667 213.689 349.762 213.792C349.858 213.894 349.914 214.029 349.92 214.17C350.007 217.11 350.04 220.14 350.02 223.26C350.013 224.26 349.713 224.957 349.12 225.35C349.081 225.378 349.034 225.394 348.986 225.397C348.938 225.4 348.89 225.39 348.847 225.367C348.804 225.344 348.769 225.31 348.745 225.268C348.721 225.226 348.709 225.178 348.71 225.13V224.84C348.71 224.827 348.708 224.815 348.703 224.804C348.698 224.792 348.691 224.782 348.682 224.775C348.673 224.767 348.663 224.762 348.652 224.759C348.642 224.756 348.631 224.757 348.62 224.76C346.813 225.253 344.843 225.31 342.71 224.93C342.597 224.91 342.483 224.9 342.37 224.9C314.443 224.973 296.587 224.987 288.8 224.94C267.993 224.82 257.543 224.86 257.45 225.06Z" fill="#E71D1D"/>
<path d="M511.06 225.28C511.004 225.307 510.942 225.319 510.88 225.316C510.818 225.312 510.757 225.293 510.704 225.261C510.652 225.228 510.608 225.182 510.577 225.128C510.547 225.073 510.531 225.012 510.53 224.95V1.52002C510.53 1.40332 510.576 1.29141 510.659 1.20889C510.741 1.12637 510.853 1.08002 510.97 1.08002H733.98C734.113 1.08002 734.24 1.1327 734.334 1.22646C734.427 1.32023 734.48 1.44741 734.48 1.58002V94.1C734.48 94.1566 734.463 94.212 734.433 94.2596C734.402 94.3073 734.359 94.3454 734.307 94.3694C734.256 94.3935 734.199 94.4025 734.143 94.3956C734.087 94.3886 734.034 94.3659 733.99 94.33C733.377 93.8167 732.603 93.77 731.67 94.19C731.578 94.2359 731.479 94.2599 731.38 94.26L722.88 94.48C722.752 94.483 722.628 94.437 722.534 94.3514C722.439 94.2659 722.38 94.1473 722.37 94.02C720.85 75.55 716.07 55.12 704.97 41.23C690.07 22.58 667.64 17.54 644 17.56C640.667 17.5667 618.403 17.56 577.21 17.54C577.083 17.54 576.961 17.5906 576.871 17.6806C576.781 17.7706 576.73 17.8927 576.73 18.02V101.19C576.73 101.284 576.768 101.374 576.835 101.441C576.902 101.508 576.994 101.547 577.09 101.55C580.077 101.57 587.8 101.56 600.26 101.52C608.533 101.493 615.637 100.687 621.57 99.1C646.48 92.46 655.33 71.94 657.69 48.19C657.707 48.0329 657.781 47.8877 657.898 47.7824C658.014 47.6772 658.164 47.6193 658.32 47.62H669.24C669.442 47.62 669.635 47.7011 669.777 47.8455C669.92 47.9899 670 48.1858 670 48.39V170.34C670 170.42 669.968 170.496 669.912 170.552C669.856 170.608 669.78 170.64 669.7 170.64H658.64C658.523 170.64 658.409 170.677 658.314 170.745C658.219 170.813 658.148 170.909 658.11 171.02C658.05 171.193 658 171.293 657.96 171.32C657.935 171.336 657.905 171.345 657.875 171.346C657.845 171.347 657.816 171.34 657.789 171.326C657.763 171.311 657.741 171.29 657.725 171.265C657.709 171.239 657.701 171.21 657.7 171.18C657.44 164.933 655.953 157.627 653.24 149.26C646.36 128.01 629.1 118.61 607.61 117.39C601.19 117.03 592.02 116.933 580.1 117.1C579.273 117.113 578.35 117.013 577.33 116.8C577.257 116.785 577.182 116.786 577.11 116.804C577.038 116.821 576.97 116.854 576.913 116.899C576.855 116.945 576.809 117.003 576.778 117.069C576.746 117.135 576.73 117.207 576.73 117.28V207.86C576.73 207.979 576.777 208.094 576.862 208.178C576.946 208.263 577.061 208.31 577.18 208.31C612.593 208.357 635.363 208.35 645.49 208.29C654.23 208.237 662.437 207.303 670.11 205.49C699.36 198.56 713.96 175.66 719.51 148.25C720.77 141.997 721.74 135.66 722.42 129.24C722.437 129.091 722.508 128.953 722.619 128.854C722.729 128.754 722.872 128.699 723.02 128.7H733.8C733.891 128.7 733.98 128.718 734.064 128.753C734.148 128.788 734.224 128.84 734.288 128.905C734.352 128.97 734.403 129.047 734.438 129.132C734.472 129.217 734.49 129.308 734.49 129.4V224.4C734.49 224.477 734.475 224.553 734.445 224.624C734.415 224.695 734.372 224.76 734.317 224.814C734.262 224.868 734.197 224.91 734.125 224.939C734.053 224.967 733.977 224.981 733.9 224.98C730.053 224.96 657.337 224.963 515.75 224.99C514.07 224.99 512.62 224.54 511.06 225.28ZM724.78 93.79C724.72 93.7367 724.603 93.7067 724.43 93.7C724.383 93.6941 724.335 93.706 724.296 93.7335C724.258 93.7609 724.231 93.8019 724.221 93.8484C724.21 93.8948 724.218 93.9433 724.242 93.9844C724.266 94.0254 724.305 94.056 724.35 94.07C724.357 94.07 724.477 94.05 724.71 94.01C724.734 94.006 724.755 93.9956 724.773 93.9799C724.791 93.9643 724.805 93.944 724.812 93.9213C724.819 93.8986 724.82 93.8743 724.814 93.8512C724.809 93.828 724.797 93.8069 724.78 93.79Z" fill="#E71D1D"/>
<path d="M768.63 94.13C766.083 94.3234 762.75 94.4334 758.63 94.46C758.529 94.46 758.433 94.4211 758.361 94.3517C758.29 94.2823 758.25 94.1882 758.25 94.09V1.77003C758.25 1.58438 758.325 1.40633 758.458 1.27506C758.591 1.14378 758.772 1.07003 758.96 1.07003H979.76C979.919 1.07005 980.074 1.04297 980.22 0.990033C980.633 0.836699 980.943 0.780031 981.15 0.820031C981.38 0.864156 981.588 0.987089 981.738 1.16773C981.887 1.34838 981.97 1.57547 981.97 1.81003C982.03 21.6634 982.03 52.2767 981.97 93.65C981.975 93.8171 981.921 93.9844 981.817 94.1211C981.714 94.2577 981.568 94.3545 981.407 94.3935C981.246 94.4325 981.081 94.4111 980.942 94.3333C980.803 94.2554 980.699 94.1264 980.65 93.97C980.617 93.85 980.35 93.82 979.85 93.88C979.836 93.8812 979.822 93.8853 979.81 93.8921C979.797 93.899 979.786 93.9084 979.778 93.9197C979.769 93.9311 979.763 93.9441 979.76 93.9579C979.757 93.9718 979.757 93.9861 979.76 94C979.767 94.06 979.81 94.1434 979.89 94.25C979.901 94.2629 979.908 94.2787 979.91 94.2955C979.911 94.3123 979.908 94.3295 979.899 94.3451C979.891 94.3607 979.878 94.3741 979.862 94.3838C979.847 94.3935 979.829 94.3991 979.81 94.4H970.9C970.709 94.4011 970.524 94.331 970.382 94.2035C970.24 94.076 970.15 93.9001 970.13 93.71C967.77 70.61 961.32 45.22 942.7 29.95C931.47 20.74 918.33 16.58 903.77 14.79C903.705 14.7814 903.638 14.7866 903.575 14.8054C903.512 14.8241 903.454 14.8559 903.405 14.8985C903.355 14.9412 903.316 14.9938 903.289 15.0527C903.263 15.1116 903.249 15.1755 903.25 15.24C903.303 55.1134 903.317 108.11 903.29 174.23C903.29 180.41 904.4 189.34 907.3 194.85C911.127 202.09 917.233 206.843 925.62 209.11C932.567 210.983 939.923 212.183 947.69 212.71C947.85 212.72 948 212.791 948.11 212.908C948.219 213.025 948.28 213.18 948.28 213.34V224.36C948.28 224.519 948.217 224.672 948.104 224.784C947.992 224.897 947.839 224.96 947.68 224.96H793.38C793.315 224.96 793.252 224.978 793.2 225.01L792.91 225.19C792.822 225.246 792.72 225.278 792.616 225.282C792.512 225.286 792.409 225.262 792.317 225.213C792.226 225.163 792.15 225.091 792.098 225.002C792.046 224.914 792.019 224.813 792.02 224.71L792.03 213.34C792.03 213.149 792.102 212.965 792.233 212.827C792.363 212.689 792.542 212.608 792.73 212.6C802.123 212.127 810.537 210.583 817.97 207.97C823.03 206.19 827.27 203.04 830.69 198.52C836.34 191.06 837 179.93 837.01 169.75C837.063 125.01 837.063 73.5 837.01 15.22C837.01 15.1495 836.994 15.0798 836.964 15.0161C836.933 14.9523 836.889 14.896 836.833 14.8511C836.778 14.8062 836.713 14.7739 836.643 14.7564C836.574 14.739 836.501 14.7368 836.43 14.75C834.45 15.13 832.123 15.53 829.45 15.95C814.48 18.29 800.11 25.43 790.36 37.1C777.32 52.71 771.69 73.98 770.38 93.77C770.376 93.8313 770.357 93.8908 770.326 93.9438C770.295 93.9968 770.253 94.042 770.201 94.0759C770.15 94.1097 770.092 94.1313 770.031 94.139C769.97 94.1466 769.908 94.1401 769.85 94.12C769.33 93.9534 768.923 93.9567 768.63 94.13ZM760.57 93.64C760.163 93.58 759.94 93.5567 759.9 93.57C759.835 93.599 759.781 93.647 759.745 93.7078C759.709 93.7687 759.693 93.8394 759.698 93.9108C759.704 93.9822 759.731 94.0509 759.776 94.1078C759.821 94.1648 759.881 94.2074 759.95 94.23C760.237 94.3167 760.477 94.3067 760.67 94.2C760.725 94.1699 760.769 94.1231 760.797 94.0665C760.824 94.0098 760.832 93.946 760.821 93.8841C760.81 93.8222 760.78 93.7653 760.735 93.7215C760.69 93.6777 760.632 93.6492 760.57 93.64Z" fill="#E71D1D"/>
<path d="M1113.63 33.3666C1113.63 34.3778 1113.43 35.3787 1113.04 36.3122C1112.65 37.2458 1112.08 38.0936 1111.37 38.8074C1110.65 39.5212 1109.8 40.0869 1108.87 40.4722C1107.93 40.8575 1106.93 41.0549 1105.92 41.0532L1102.26 41.0468C1100.22 41.0432 1098.26 40.2285 1096.82 38.782C1095.38 37.3355 1094.57 35.3755 1094.57 33.3334L1094.61 14.2534C1094.61 13.2422 1094.81 12.2413 1095.2 11.3077C1095.59 10.3742 1096.16 9.52635 1096.87 8.81258C1097.59 8.09882 1098.44 7.53312 1099.37 7.14778C1100.31 6.76245 1101.31 6.56502 1102.32 6.56678L1105.98 6.57319C1108.02 6.57676 1109.98 7.39143 1111.42 8.83797C1112.86 10.2845 1113.67 12.2444 1113.67 14.2866L1113.63 33.3666ZM1107.57 15.06C1107.57 14.2033 1107.23 13.3818 1106.62 12.776C1106.02 12.1703 1105.2 11.83 1104.34 11.83H1103.84C1102.98 11.83 1102.16 12.1703 1101.56 12.776C1100.95 13.3818 1100.61 14.2033 1100.61 15.06V32.52C1100.61 33.3766 1100.95 34.1982 1101.56 34.8039C1102.16 35.4097 1102.98 35.75 1103.84 35.75H1104.34C1105.2 35.75 1106.02 35.4097 1106.62 34.8039C1107.23 34.1982 1107.57 33.3766 1107.57 32.52V15.06Z" fill="#E71D1D"/>
<path d="M1082.53 22.6C1082.84 22.6 1083.03 22.44 1083.12 22.12C1084.47 17.28 1085.81 12.4634 1087.12 7.67002C1087.15 7.55858 1087.21 7.45984 1087.31 7.38926C1087.4 7.31869 1087.51 7.28027 1087.63 7.28002H1093.09C1093.13 7.27914 1093.18 7.28886 1093.22 7.30834C1093.26 7.32782 1093.29 7.35649 1093.31 7.39189C1093.34 7.42728 1093.36 7.46835 1093.36 7.51157C1093.37 7.55479 1093.36 7.59886 1093.35 7.64002L1087.31 26.14C1087.22 26.411 1087.08 26.662 1086.89 26.88L1085.81 28.15C1085.67 28.3111 1085.6 28.5202 1085.6 28.74V39.95C1085.6 40.0332 1085.58 40.1154 1085.55 40.192C1085.52 40.2686 1085.47 40.3378 1085.41 40.3957C1085.35 40.4535 1085.28 40.4987 1085.2 40.5287C1085.13 40.5586 1085.04 40.5727 1084.96 40.57C1083.77 40.5434 1082.97 40.53 1082.58 40.53C1082.19 40.53 1081.39 40.5467 1080.19 40.58C1080.11 40.5827 1080.03 40.5689 1079.95 40.5396C1079.87 40.5103 1079.8 40.4659 1079.74 40.4091C1079.68 40.3524 1079.64 40.2843 1079.6 40.2089C1079.57 40.1335 1079.55 40.0523 1079.55 39.97L1079.49 28.76C1079.49 28.5402 1079.42 28.3312 1079.28 28.17L1078.19 26.9C1078.01 26.682 1077.86 26.431 1077.77 26.16L1071.63 7.70003C1071.61 7.65833 1071.61 7.61314 1071.61 7.56855C1071.62 7.52395 1071.63 7.48137 1071.66 7.44463C1071.69 7.4079 1071.72 7.37818 1071.76 7.35817C1071.8 7.33816 1071.85 7.32849 1071.89 7.33003L1077.35 7.31003C1077.47 7.30968 1077.58 7.34666 1077.67 7.41529C1077.76 7.48393 1077.83 7.58044 1077.86 7.69002C1079.2 12.4767 1080.56 17.2867 1081.94 22.12C1082.03 22.44 1082.23 22.6 1082.53 22.6Z" fill="#E71D1D"/>
<path d="M1127.04 41.22C1121.95 41.21 1117.7 38.95 1117.6 33.21C1117.49 26.8567 1117.48 18.4367 1117.55 7.94999C1117.55 7.7422 1117.64 7.54382 1117.79 7.39782C1117.93 7.25183 1118.13 7.16997 1118.34 7.16998H1122.89C1123.11 7.16998 1123.31 7.25532 1123.46 7.40723C1123.61 7.55913 1123.7 7.76516 1123.7 7.97998C1123.67 16.9267 1123.68 25.2033 1123.73 32.81C1123.73 33.3903 1123.91 33.9562 1124.23 34.4353C1124.56 34.9144 1125.02 35.2851 1125.55 35.5C1125.89 35.6333 1126.39 35.7 1127.04 35.7C1127.7 35.7066 1128.2 35.64 1128.53 35.5C1129.07 35.2867 1129.53 34.9167 1129.85 34.4374C1130.18 33.9582 1130.36 33.3915 1130.36 32.81C1130.42 25.2033 1130.44 16.9267 1130.41 7.97998C1130.41 7.76516 1130.5 7.55913 1130.65 7.40723C1130.8 7.25532 1131.01 7.16998 1131.22 7.16998L1135.77 7.17999C1135.98 7.17997 1136.18 7.26183 1136.33 7.40783C1136.47 7.55382 1136.56 7.7522 1136.56 7.95998C1136.63 18.4467 1136.6 26.8667 1136.49 33.22C1136.38 38.96 1132.13 41.22 1127.04 41.22Z" fill="#E71D1D"/>
<path d="M1147.12 26.86C1147.09 26.8386 1147.05 26.8264 1147.01 26.8246C1146.97 26.8228 1146.93 26.8316 1146.9 26.8499C1146.86 26.8683 1146.83 26.8956 1146.81 26.929C1146.79 26.9625 1146.78 27.0008 1146.78 27.04V39.98C1146.78 40.1392 1146.72 40.2918 1146.61 40.4043C1146.5 40.5168 1146.35 40.58 1146.19 40.58H1141.32C1141.16 40.58 1141 40.5158 1140.89 40.4014C1140.77 40.287 1140.71 40.1318 1140.71 39.97V7.65002C1140.71 7.57746 1140.74 7.50772 1140.79 7.45548C1140.84 7.40325 1140.91 7.37261 1140.98 7.37002C1145.91 7.19669 1149.66 7.18335 1152.22 7.33002C1159.87 7.77002 1158.4 15.08 1158.45 20.27C1158.47 22.3834 1156.99 24.18 1154.02 25.66C1153.9 25.719 1153.81 25.8215 1153.77 25.9453C1153.72 26.069 1153.73 26.2037 1153.79 26.32L1160.78 40.38C1160.79 40.3987 1160.8 40.42 1160.8 40.4416C1160.8 40.4632 1160.79 40.4843 1160.78 40.5028C1160.77 40.5212 1160.75 40.5362 1160.73 40.5463C1160.71 40.5564 1160.69 40.5611 1160.67 40.56H1154.32C1154.24 40.5597 1154.16 40.5371 1154.09 40.4947C1154.02 40.4523 1153.97 40.3918 1153.93 40.32C1151.06 34.46 1148.17 27.6 1147.12 26.86ZM1146.79 12.92L1146.77 20.78C1146.77 20.9295 1146.83 21.073 1146.93 21.1796C1147.04 21.2862 1147.18 21.3474 1147.33 21.35L1150.24 21.36C1150.8 21.3626 1151.33 21.1333 1151.73 20.7226C1152.12 20.312 1152.35 19.7535 1152.35 19.17L1152.37 14.57C1152.37 14.2811 1152.32 13.9947 1152.21 13.7273C1152.11 13.4599 1151.96 13.2166 1151.76 13.0114C1151.57 12.8061 1151.34 12.643 1151.08 12.5312C1150.83 12.4195 1150.56 12.3613 1150.28 12.36L1147.37 12.35C1147.29 12.3487 1147.22 12.3625 1147.15 12.3905C1147.08 12.4186 1147.01 12.4603 1146.96 12.5134C1146.91 12.5665 1146.86 12.6297 1146.83 12.6996C1146.81 12.7694 1146.79 12.8443 1146.79 12.92Z" fill="#E71D1D"/>
<path d="M1073.73 70.18C1073.9 74.2934 1073.88 78.3034 1073.66 82.21C1073.24 89.49 1064.05 90.31 1059.07 88.12C1056.26 86.8867 1054.83 84.5 1054.78 80.96C1054.65 69.8934 1054.68 63.4567 1054.87 61.65C1055.6 54.91 1061.36 54.02 1067.04 54.71C1073.77 55.53 1074.44 61.48 1073.74 66.82C1073.72 66.9941 1073.63 67.1537 1073.5 67.2694C1073.37 67.3851 1073.2 67.4493 1073.02 67.45H1068.51C1068.3 67.45 1068.1 67.3689 1067.96 67.2245C1067.81 67.0801 1067.73 66.8842 1067.73 66.68V62.55C1067.73 61.8525 1067.45 61.1836 1066.96 60.6903C1066.47 60.1971 1065.8 59.92 1065.1 59.92H1063.81C1063.01 59.92 1062.25 60.2361 1061.69 60.7987C1061.13 61.3613 1060.81 62.1244 1060.81 62.92V80.63C1060.81 81.0332 1060.89 81.4324 1061.04 81.8049C1061.2 82.1773 1061.42 82.5158 1061.71 82.8008C1061.99 83.0859 1062.33 83.3121 1062.71 83.4663C1063.08 83.6206 1063.48 83.7 1063.88 83.7H1064.94C1065.69 83.7 1066.4 83.404 1066.93 82.877C1067.45 82.35 1067.75 81.6353 1067.75 80.89V75.39C1067.75 75.1593 1067.66 74.938 1067.5 74.7748C1067.33 74.6117 1067.11 74.52 1066.88 74.52H1063.31C1063.05 74.52 1062.81 74.4178 1062.62 74.2359C1062.44 74.054 1062.34 73.8073 1062.34 73.55V70.37C1062.34 70.2545 1062.36 70.14 1062.41 70.0333C1062.45 69.9265 1062.51 69.8295 1062.59 69.7478C1062.68 69.6661 1062.77 69.6012 1062.88 69.557C1062.98 69.5128 1063.1 69.49 1063.21 69.49H1073.01C1073.2 69.4899 1073.37 69.5616 1073.51 69.6902C1073.64 69.8188 1073.72 69.9943 1073.73 70.18Z" fill="#E71D1D"/>
<path d="M1159.17 83.93V87.86C1159.17 87.948 1159.15 88.0351 1159.12 88.1164C1159.09 88.1977 1159.04 88.2716 1158.97 88.3338C1158.91 88.396 1158.84 88.4453 1158.76 88.479C1158.68 88.5127 1158.59 88.53 1158.5 88.53H1144.22C1144.04 88.53 1143.87 88.4594 1143.75 88.3338C1143.62 88.2081 1143.55 88.0377 1143.55 87.86V55.94C1143.55 55.7623 1143.62 55.5919 1143.75 55.4663C1143.87 55.3406 1144.04 55.27 1144.22 55.27H1158C1158.09 55.27 1158.18 55.2874 1158.26 55.321C1158.34 55.3547 1158.41 55.404 1158.47 55.4663C1158.54 55.5285 1158.59 55.6023 1158.62 55.6836C1158.65 55.7649 1158.67 55.852 1158.67 55.94V59.88C1158.67 59.968 1158.65 60.0551 1158.62 60.1364C1158.59 60.2177 1158.54 60.2916 1158.47 60.3538C1158.41 60.416 1158.34 60.4654 1158.26 60.499C1158.18 60.5327 1158.09 60.55 1158 60.55H1150.31C1150.13 60.55 1149.96 60.6206 1149.84 60.7463C1149.71 60.8719 1149.64 61.0423 1149.64 61.22V68.01C1149.64 68.1877 1149.71 68.3581 1149.84 68.4838C1149.96 68.6094 1150.13 68.68 1150.31 68.68H1157.97C1158.15 68.68 1158.32 68.7506 1158.44 68.8763C1158.57 69.0019 1158.64 69.1723 1158.64 69.35V73.47C1158.64 73.6477 1158.57 73.8181 1158.44 73.9438C1158.32 74.0694 1158.15 74.14 1157.97 74.14H1150.32C1150.14 74.14 1149.97 74.2106 1149.85 74.3363C1149.72 74.4619 1149.65 74.6323 1149.65 74.81V82.59C1149.65 82.7677 1149.72 82.9381 1149.85 83.0638C1149.97 83.1894 1150.14 83.26 1150.32 83.26H1158.5C1158.59 83.26 1158.68 83.2773 1158.76 83.311C1158.84 83.3447 1158.91 83.394 1158.97 83.4563C1159.04 83.5185 1159.09 83.5923 1159.12 83.6736C1159.15 83.7549 1159.17 83.842 1159.17 83.93Z" fill="#E71D1D"/>
<path d="M1086.97 83.71C1087.63 83.71 1088.13 83.6433 1088.46 83.51C1089 83.2988 1089.46 82.931 1089.78 82.4536C1090.11 81.9761 1090.28 81.4108 1090.29 80.83C1090.35 73.23 1090.37 64.9633 1090.34 56.03C1090.34 55.9236 1090.36 55.8183 1090.4 55.72C1090.44 55.6217 1090.5 55.5324 1090.58 55.4572C1090.65 55.382 1090.74 55.3223 1090.84 55.2816C1090.94 55.2409 1091.04 55.22 1091.15 55.22L1095.69 55.23C1095.9 55.23 1096.1 55.3118 1096.24 55.4578C1096.39 55.6038 1096.48 55.8022 1096.48 56.01C1096.55 66.4833 1096.52 74.89 1096.41 81.23C1096.3 86.97 1092.05 89.22 1086.97 89.22C1081.89 89.21 1077.64 86.95 1077.55 81.22C1077.44 74.8733 1077.43 66.4666 1077.5 56C1077.5 55.7922 1077.59 55.5938 1077.73 55.4478C1077.88 55.3018 1078.08 55.22 1078.29 55.22H1082.84C1083.05 55.2226 1083.26 55.3091 1083.41 55.4607C1083.56 55.6123 1083.64 55.8169 1083.64 56.03C1083.61 64.9633 1083.62 73.2266 1083.67 80.82C1083.67 81.4014 1083.85 81.968 1084.17 82.4473C1084.5 82.9266 1084.95 83.2966 1085.49 83.51C1085.82 83.6433 1086.32 83.71 1086.97 83.71Z" fill="#E71D1D"/>
<path d="M1108.7 55.22C1111.34 55.2133 1113.9 55.2366 1116.37 55.29C1116.59 55.2952 1116.81 55.3881 1116.97 55.5488C1117.12 55.7096 1117.21 55.9253 1117.21 56.15V59.52C1117.21 59.7772 1117.11 60.024 1116.93 60.2059C1116.74 60.3878 1116.5 60.49 1116.24 60.49H1112.48C1112.32 60.4926 1112.16 60.5587 1112.04 60.6744C1111.93 60.7901 1111.86 60.9464 1111.86 61.11C1111.81 64.81 1111.79 68.4033 1111.8 71.89C1111.8 75.37 1111.82 78.96 1111.87 82.66C1111.87 82.8253 1111.94 82.983 1112.06 83.099C1112.18 83.215 1112.33 83.28 1112.5 83.28H1116.26C1116.52 83.28 1116.76 83.3822 1116.95 83.5641C1117.13 83.746 1117.23 83.9927 1117.23 84.25V87.62C1117.23 87.8446 1117.14 88.0604 1116.99 88.2211C1116.83 88.3818 1116.61 88.4748 1116.39 88.48C1113.92 88.54 1111.36 88.5666 1108.73 88.56C1106.09 88.5666 1103.53 88.5433 1101.06 88.49C1100.84 88.4848 1100.62 88.3918 1100.46 88.2311C1100.31 88.0704 1100.22 87.8546 1100.22 87.63V84.26C1100.22 84.0027 1100.32 83.756 1100.5 83.5741C1100.69 83.3922 1100.93 83.29 1101.19 83.29H1104.95C1105.12 83.29 1105.28 83.2236 1105.4 83.1055C1105.51 82.9873 1105.58 82.8271 1105.58 82.66C1105.62 78.9667 1105.64 75.3766 1105.63 71.89C1105.63 68.41 1105.61 64.82 1105.56 61.12C1105.56 60.9529 1105.49 60.7927 1105.38 60.6745C1105.26 60.5564 1105.1 60.49 1104.93 60.49L1101.17 60.5C1100.91 60.5 1100.67 60.3978 1100.48 60.2159C1100.3 60.034 1100.2 59.7872 1100.2 59.53V56.16C1100.2 55.9353 1100.29 55.7196 1100.44 55.5588C1100.6 55.3981 1100.82 55.3052 1101.04 55.3C1103.51 55.24 1106.07 55.2133 1108.7 55.22Z" fill="#E71D1D"/>
<path d="M1120.51 55.93C1120.51 55.7364 1120.59 55.5507 1120.72 55.4138C1120.86 55.2769 1121.05 55.2 1121.24 55.2L1131.6 55.18C1133.73 55.1773 1135.78 56.0173 1137.29 57.5154C1138.8 59.0136 1139.65 61.0473 1139.66 63.17L1139.7 80.49C1139.7 81.5427 1139.5 82.5856 1139.09 83.5591C1138.69 84.5326 1138.1 85.4175 1137.35 86.1633C1136.61 86.9091 1135.72 87.5011 1134.74 87.9055C1133.77 88.3099 1132.72 88.5187 1131.66 88.52L1121.3 88.54C1121.11 88.54 1120.92 88.4631 1120.78 88.3262C1120.65 88.1893 1120.57 88.0036 1120.57 87.81L1120.51 55.93ZM1126.71 60.96L1126.55 82.78C1126.55 82.8719 1126.57 82.963 1126.6 83.0479C1126.64 83.1328 1126.69 83.21 1126.76 83.275C1126.82 83.34 1126.9 83.3915 1126.98 83.4267C1127.07 83.4619 1127.16 83.48 1127.25 83.48L1129.91 83.5C1130.82 83.5051 1131.7 83.135 1132.35 82.4711C1133 81.8072 1133.36 80.904 1133.37 79.96L1133.49 63.86C1133.49 63.3924 1133.41 62.9289 1133.24 62.4959C1133.07 62.0629 1132.81 61.6689 1132.5 61.3365C1132.18 61.004 1131.8 60.7396 1131.39 60.5583C1130.97 60.3771 1130.52 60.2825 1130.07 60.28L1127.41 60.26C1127.22 60.26 1127.05 60.3337 1126.92 60.465C1126.78 60.5963 1126.71 60.7743 1126.71 60.96Z" fill="#E71D1D"/>
<path d="M724.71 94.01C724.477 94.05 724.357 94.07 724.35 94.07C724.305 94.0559 724.266 94.0254 724.242 93.9843C724.218 93.9433 724.211 93.8948 724.221 93.8483C724.231 93.8019 724.258 93.7609 724.296 93.7334C724.335 93.706 724.383 93.694 724.43 93.7C724.603 93.7066 724.72 93.7367 724.78 93.79C724.797 93.8068 724.809 93.828 724.814 93.8512C724.82 93.8743 724.819 93.8986 724.812 93.9213C724.805 93.944 724.791 93.9643 724.773 93.9799C724.755 93.9955 724.734 94.006 724.71 94.01Z" fill="#121218"/>
<path d="M760.67 94.2C760.477 94.3066 760.237 94.3167 759.95 94.23C759.881 94.2074 759.821 94.1648 759.776 94.1078C759.731 94.0508 759.704 93.9821 759.698 93.9107C759.693 93.8394 759.709 93.7686 759.745 93.7078C759.781 93.647 759.835 93.5989 759.9 93.57C759.94 93.5566 760.163 93.58 760.57 93.64C760.632 93.6492 760.69 93.6777 760.735 93.7215C760.78 93.7653 760.81 93.8221 760.821 93.884C760.832 93.9459 760.824 94.0097 760.797 94.0664C760.769 94.1231 760.725 94.1698 760.67 94.2Z" fill="#121218"/>
<path d="M1125.63 128.357C1125.63 130.407 1124.81 132.371 1123.36 133.819C1121.91 135.266 1119.94 136.077 1117.89 136.073L1114.29 136.067C1112.24 136.063 1110.28 135.245 1108.83 133.793C1107.38 132.341 1106.57 130.373 1106.57 128.323L1106.61 109.243C1106.61 107.193 1107.43 105.229 1108.88 103.781C1110.33 102.334 1112.3 101.523 1114.35 101.527L1117.95 101.533C1120 101.537 1121.96 102.355 1123.41 103.807C1124.86 105.259 1125.67 107.226 1125.67 109.277L1125.63 128.357ZM1119.59 110.066C1119.59 109.209 1119.25 108.387 1118.64 107.78C1118.04 107.174 1117.22 106.832 1116.36 106.83L1115.86 106.83C1115.44 106.829 1115.02 106.912 1114.62 107.073C1114.23 107.235 1113.88 107.472 1113.58 107.772C1113.27 108.071 1113.04 108.427 1112.87 108.818C1112.71 109.21 1112.63 109.63 1112.63 110.054L1112.59 127.514C1112.59 128.37 1112.93 129.193 1113.54 129.799C1114.14 130.406 1114.96 130.748 1115.82 130.749L1116.32 130.75C1116.74 130.751 1117.16 130.668 1117.56 130.507C1117.95 130.345 1118.3 130.108 1118.6 129.808C1118.91 129.509 1119.14 129.153 1119.31 128.762C1119.47 128.37 1119.55 127.95 1119.55 127.526L1119.59 110.066Z" fill="#E71D1D"/>
<path d="M1149.06 126.38C1147.6 126.38 1146.72 126.393 1146.41 126.42C1146.23 126.435 1146.05 126.511 1145.92 126.636C1145.78 126.761 1145.69 126.928 1145.66 127.11L1144.23 135.34C1144.22 135.398 1144.19 135.452 1144.15 135.491C1144.11 135.529 1144.05 135.551 1143.99 135.55H1138.34C1138.31 135.551 1138.28 135.544 1138.25 135.531C1138.22 135.517 1138.19 135.498 1138.17 135.473C1138.15 135.448 1138.14 135.419 1138.13 135.388C1138.12 135.356 1138.12 135.323 1138.12 135.29L1143.72 102.96C1143.75 102.793 1143.84 102.642 1143.97 102.534C1144.1 102.426 1144.26 102.368 1144.43 102.37C1145.96 102.39 1147.5 102.397 1149.05 102.39C1150.6 102.39 1152.14 102.383 1153.66 102.37C1153.83 102.365 1154 102.422 1154.13 102.53C1154.26 102.638 1154.35 102.791 1154.38 102.96L1160 135.28C1160 135.313 1160 135.346 1159.99 135.378C1159.98 135.409 1159.97 135.438 1159.95 135.463C1159.93 135.488 1159.9 135.507 1159.87 135.521C1159.84 135.534 1159.81 135.541 1159.78 135.54L1154.13 135.55C1154.07 135.551 1154.01 135.529 1153.97 135.491C1153.93 135.452 1153.9 135.398 1153.89 135.34L1152.46 127.11C1152.43 126.926 1152.34 126.759 1152.2 126.633C1152.06 126.508 1151.89 126.433 1151.7 126.42C1151.39 126.393 1150.51 126.38 1149.06 126.38ZM1147.47 121.39L1150.71 121.37C1150.78 121.367 1150.84 121.339 1150.89 121.29C1150.93 121.242 1150.96 121.177 1150.96 121.11V120.97C1150.94 117.411 1150.73 113.999 1150.38 111.484C1150.03 108.97 1149.57 107.558 1149.09 107.56H1148.93C1148.69 107.561 1148.46 107.909 1148.25 108.585C1148.03 109.26 1147.84 110.25 1147.68 111.497C1147.52 112.744 1147.39 114.224 1147.31 115.853C1147.23 117.482 1147.19 119.227 1147.2 120.99V121.13C1147.2 121.165 1147.21 121.2 1147.22 121.232C1147.23 121.264 1147.25 121.293 1147.28 121.318C1147.3 121.342 1147.33 121.361 1147.37 121.373C1147.4 121.386 1147.44 121.391 1147.47 121.39Z" fill="#E71D1D"/>
<path d="M1094.76 135.53C1093.19 135.53 1092.37 135.527 1092.29 135.52C1092.13 135.503 1091.99 135.428 1091.88 135.309C1091.78 135.191 1091.72 135.038 1091.72 134.88L1091.7 108.2C1091.7 108.014 1091.63 107.836 1091.49 107.705C1091.36 107.574 1091.19 107.5 1091 107.5L1084.99 107.49C1084.92 107.49 1084.85 107.462 1084.8 107.411C1084.75 107.36 1084.72 107.292 1084.72 107.22V102.64C1084.72 102.567 1084.75 102.499 1084.81 102.448C1084.86 102.398 1084.93 102.37 1085 102.37C1088.17 102.317 1091.42 102.267 1094.76 102.22C1098.11 102.273 1101.36 102.323 1104.53 102.37C1104.6 102.373 1104.67 102.403 1104.72 102.455C1104.77 102.508 1104.8 102.577 1104.8 102.65L1104.81 107.23C1104.81 107.302 1104.78 107.37 1104.73 107.421C1104.68 107.472 1104.61 107.5 1104.54 107.5H1098.52C1098.33 107.5 1098.16 107.574 1098.03 107.705C1097.89 107.836 1097.82 108.014 1097.82 108.2L1097.79 134.88C1097.79 135.038 1097.73 135.191 1097.63 135.309C1097.52 135.428 1097.38 135.503 1097.22 135.52C1097.15 135.527 1096.33 135.53 1094.76 135.53Z" fill="#E71D1D"/>
<path d="M1038.3 183.45C1038.23 183.447 1038.16 183.419 1038.12 183.37C1038.07 183.322 1038.04 183.257 1038.04 183.19V150.94C1038.04 150.773 1038.11 150.613 1038.22 150.495C1038.34 150.376 1038.5 150.31 1038.67 150.31C1042.25 150.277 1045.37 150.27 1048.03 150.29C1051.23 150.31 1054.63 150.81 1055.31 154.45C1056.07 158.563 1055.72 162.33 1054.25 165.75C1054.19 165.902 1054.16 166.068 1054.18 166.231C1054.21 166.395 1054.27 166.55 1054.37 166.68C1056.78 169.79 1056.53 173.69 1056.18 177.76C1055.89 181.22 1053.9 183.097 1050.21 183.39C1047.04 183.637 1043.07 183.657 1038.3 183.45ZM1049.5 156.664C1049.5 156.324 1049.37 155.997 1049.13 155.755C1048.89 155.513 1048.57 155.375 1048.23 155.372L1045.43 155.348C1045.09 155.345 1044.76 155.477 1044.52 155.715C1044.28 155.953 1044.14 156.277 1044.14 156.617L1044.08 162.457C1044.08 162.796 1044.21 163.123 1044.45 163.365C1044.69 163.607 1045.01 163.745 1045.35 163.748L1048.15 163.772C1048.49 163.775 1048.82 163.643 1049.06 163.405C1049.3 163.167 1049.44 162.843 1049.44 162.503L1049.5 156.664ZM1044.16 169.35L1044.1 177.93C1044.1 178.006 1044.12 178.082 1044.14 178.152C1044.17 178.222 1044.22 178.286 1044.27 178.34C1044.32 178.394 1044.39 178.437 1044.46 178.466C1044.53 178.495 1044.6 178.51 1044.68 178.51L1047.87 178.54C1048.45 178.542 1049 178.308 1049.41 177.888C1049.82 177.468 1050.05 176.897 1050.05 176.3L1050.09 171.06C1050.09 170.764 1050.04 170.472 1049.93 170.198C1049.82 169.924 1049.66 169.676 1049.46 169.466C1049.26 169.256 1049.02 169.089 1048.76 168.975C1048.5 168.861 1048.22 168.801 1047.93 168.8L1044.74 168.77C1044.59 168.77 1044.44 168.831 1044.33 168.94C1044.22 169.049 1044.16 169.196 1044.16 169.35Z" fill="#E71D1D"/>
<path d="M1066.12 177.88C1066.12 177.939 1066.13 177.997 1066.15 178.051C1066.17 178.106 1066.21 178.156 1066.25 178.198C1066.29 178.239 1066.34 178.273 1066.4 178.295C1066.45 178.318 1066.51 178.33 1066.57 178.33L1074.74 178.24C1074.86 178.239 1074.97 178.26 1075.08 178.303C1075.19 178.346 1075.29 178.41 1075.37 178.491C1075.46 178.571 1075.52 178.668 1075.57 178.774C1075.61 178.88 1075.64 178.994 1075.64 179.11L1075.68 182.79C1075.68 182.892 1075.66 182.994 1075.62 183.089C1075.58 183.183 1075.53 183.269 1075.45 183.342C1075.38 183.414 1075.3 183.471 1075.2 183.511C1075.11 183.55 1075.01 183.57 1074.91 183.57L1060.56 183.53C1060.42 183.53 1060.29 183.475 1060.2 183.378C1060.1 183.28 1060.05 183.148 1060.05 183.01V150.91C1060.05 150.83 1060.07 150.751 1060.1 150.677C1060.13 150.603 1060.17 150.535 1060.23 150.479C1060.29 150.422 1060.35 150.377 1060.43 150.346C1060.5 150.316 1060.58 150.3 1060.66 150.3L1074.53 150.35C1074.7 150.35 1074.87 150.417 1074.99 150.537C1075.11 150.657 1075.18 150.82 1075.18 150.99L1075.15 154.9C1075.15 155.088 1075.07 155.269 1074.94 155.402C1074.8 155.535 1074.62 155.61 1074.43 155.61L1066.56 155.58C1066.46 155.58 1066.36 155.62 1066.29 155.691C1066.22 155.763 1066.18 155.859 1066.18 155.96L1066.13 163.34C1066.13 163.387 1066.14 163.433 1066.15 163.477C1066.17 163.521 1066.2 163.56 1066.23 163.594C1066.27 163.627 1066.31 163.654 1066.35 163.672C1066.39 163.691 1066.44 163.7 1066.49 163.7L1074.17 163.71C1074.3 163.71 1074.43 163.736 1074.56 163.788C1074.68 163.839 1074.79 163.915 1074.88 164.01C1074.98 164.105 1075.05 164.218 1075.1 164.341C1075.15 164.465 1075.17 164.597 1075.17 164.73L1075.14 168.26C1075.14 168.39 1075.11 168.518 1075.06 168.638C1075.01 168.758 1074.93 168.866 1074.84 168.957C1074.75 169.048 1074.64 169.12 1074.51 169.169C1074.39 169.217 1074.26 169.241 1074.13 169.24L1066.63 169.12C1066.51 169.12 1066.4 169.167 1066.31 169.252C1066.23 169.336 1066.18 169.451 1066.18 169.57L1066.12 177.88Z" fill="#E71D1D"/>
<path d="M1087.12 150.28C1090.47 150.333 1093.73 150.383 1096.9 150.43C1096.97 150.433 1097.04 150.463 1097.09 150.515C1097.14 150.568 1097.17 150.637 1097.17 150.71V155.29C1097.17 155.362 1097.14 155.43 1097.09 155.481C1097.04 155.532 1096.97 155.56 1096.9 155.56H1090.88C1090.69 155.56 1090.52 155.634 1090.38 155.765C1090.25 155.896 1090.18 156.074 1090.18 156.26L1090.14 182.96C1090.14 183.118 1090.08 183.271 1089.98 183.39C1089.87 183.508 1089.73 183.583 1089.57 183.6C1089.49 183.607 1088.67 183.61 1087.1 183.61C1085.53 183.61 1084.71 183.607 1084.64 183.6C1084.48 183.585 1084.33 183.511 1084.23 183.393C1084.12 183.274 1084.06 183.12 1084.06 182.96V156.26C1084.06 156.168 1084.04 156.077 1084.01 155.992C1083.97 155.907 1083.92 155.83 1083.85 155.765C1083.79 155.7 1083.71 155.648 1083.63 155.613C1083.54 155.578 1083.45 155.56 1083.36 155.56L1077.34 155.55C1077.27 155.55 1077.2 155.522 1077.15 155.471C1077.1 155.42 1077.07 155.352 1077.07 155.28L1077.08 150.7C1077.08 150.627 1077.11 150.558 1077.16 150.505C1077.21 150.453 1077.28 150.423 1077.35 150.42C1080.52 150.373 1083.78 150.327 1087.12 150.28Z" fill="#E71D1D"/>
<path d="M1108.67 183.57C1107.1 183.577 1106.28 183.577 1106.2 183.57C1106.04 183.553 1105.9 183.478 1105.79 183.359C1105.69 183.241 1105.63 183.088 1105.63 182.93L1105.42 156.25C1105.42 156.066 1105.34 155.891 1105.21 155.761C1105.08 155.632 1104.9 155.56 1104.72 155.56L1098.7 155.6C1098.63 155.6 1098.56 155.572 1098.51 155.521C1098.46 155.47 1098.43 155.402 1098.43 155.33L1098.4 150.75C1098.4 150.676 1098.43 150.605 1098.48 150.552C1098.53 150.5 1098.61 150.47 1098.68 150.47C1101.85 150.403 1105.1 150.33 1108.44 150.25C1111.79 150.283 1115.04 150.313 1118.21 150.34C1118.28 150.343 1118.35 150.373 1118.4 150.425C1118.45 150.478 1118.48 150.547 1118.48 150.62L1118.52 155.19C1118.52 155.225 1118.51 155.261 1118.5 155.293C1118.49 155.326 1118.47 155.356 1118.44 155.381C1118.42 155.406 1118.39 155.426 1118.35 155.439C1118.32 155.453 1118.29 155.46 1118.25 155.46L1112.23 155.51C1112.05 155.513 1111.87 155.588 1111.74 155.719C1111.61 155.85 1111.54 156.026 1111.54 156.21L1111.7 182.89C1111.7 183.05 1111.65 183.205 1111.54 183.326C1111.44 183.446 1111.29 183.523 1111.13 183.54C1111.06 183.547 1110.24 183.557 1108.67 183.57Z" fill="#E71D1D"/>
<path d="M1127.59 177.9C1127.59 177.959 1127.6 178.017 1127.62 178.071C1127.64 178.126 1127.68 178.176 1127.72 178.218C1127.76 178.259 1127.81 178.293 1127.87 178.316C1127.92 178.338 1127.98 178.35 1128.04 178.35L1136.23 178.25C1136.35 178.249 1136.46 178.27 1136.57 178.313C1136.68 178.356 1136.78 178.42 1136.86 178.501C1136.95 178.581 1137.01 178.678 1137.06 178.784C1137.1 178.89 1137.13 179.004 1137.13 179.12L1137.17 182.8C1137.17 182.903 1137.15 183.006 1137.11 183.102C1137.08 183.197 1137.02 183.285 1136.95 183.358C1136.88 183.432 1136.79 183.49 1136.7 183.53C1136.6 183.57 1136.5 183.59 1136.4 183.59L1122.03 183.57C1121.89 183.57 1121.77 183.515 1121.67 183.418C1121.57 183.32 1121.52 183.188 1121.52 183.05L1121.49 150.89C1121.49 150.728 1121.55 150.573 1121.67 150.459C1121.78 150.344 1121.94 150.28 1122.1 150.28L1135.99 150.31C1136.16 150.31 1136.33 150.377 1136.45 150.497C1136.57 150.618 1136.64 150.78 1136.64 150.95L1136.61 154.87C1136.61 155.058 1136.53 155.239 1136.4 155.372C1136.26 155.505 1136.08 155.58 1135.89 155.58L1128 155.56C1127.9 155.56 1127.8 155.6 1127.73 155.671C1127.66 155.743 1127.62 155.839 1127.62 155.94L1127.59 163.33C1127.59 163.377 1127.6 163.423 1127.61 163.467C1127.63 163.511 1127.66 163.55 1127.69 163.584C1127.73 163.617 1127.77 163.644 1127.81 163.662C1127.85 163.681 1127.9 163.69 1127.95 163.69H1135.64C1135.77 163.69 1135.91 163.717 1136.03 163.769C1136.15 163.821 1136.26 163.897 1136.36 163.993C1136.45 164.09 1136.52 164.203 1136.57 164.328C1136.62 164.453 1136.64 164.586 1136.64 164.72L1136.62 168.25C1136.62 168.381 1136.59 168.51 1136.54 168.63C1136.49 168.751 1136.41 168.86 1136.32 168.951C1136.22 169.042 1136.11 169.113 1135.99 169.161C1135.86 169.209 1135.73 169.233 1135.6 169.23L1128.1 169.12C1128.04 169.119 1127.98 169.129 1127.92 169.151C1127.87 169.173 1127.82 169.206 1127.78 169.248C1127.73 169.29 1127.7 169.34 1127.68 169.395C1127.65 169.451 1127.64 169.51 1127.64 169.57L1127.59 177.9Z" fill="#E71D1D"/>
<path d="M1147.11 169.85C1147.08 169.829 1147.04 169.816 1147 169.815C1146.96 169.813 1146.92 169.822 1146.89 169.84C1146.85 169.858 1146.82 169.886 1146.8 169.919C1146.78 169.952 1146.77 169.991 1146.77 170.03V182.97C1146.77 183.129 1146.71 183.282 1146.6 183.394C1146.49 183.507 1146.34 183.57 1146.18 183.57H1141.31C1141.15 183.57 1140.99 183.506 1140.88 183.391C1140.76 183.277 1140.7 183.122 1140.7 182.96V150.64C1140.7 150.567 1140.73 150.498 1140.78 150.445C1140.83 150.393 1140.9 150.363 1140.97 150.36C1145.9 150.187 1149.65 150.173 1152.21 150.32C1159.86 150.76 1158.39 158.07 1158.44 163.26C1158.46 165.373 1156.98 167.17 1154.01 168.65C1153.89 168.709 1153.8 168.812 1153.76 168.935C1153.71 169.059 1153.72 169.194 1153.78 169.31L1160.77 183.37C1160.78 183.389 1160.79 183.41 1160.79 183.432C1160.79 183.453 1160.78 183.474 1160.77 183.493C1160.76 183.511 1160.74 183.526 1160.72 183.536C1160.7 183.546 1160.68 183.551 1160.66 183.55H1154.31C1154.23 183.55 1154.15 183.527 1154.08 183.485C1154.01 183.442 1153.96 183.382 1153.92 183.31C1151.05 177.45 1148.16 170.59 1147.11 169.85ZM1146.75 156.01V163.67C1146.75 163.842 1146.82 164.008 1146.94 164.13C1147.06 164.252 1147.23 164.32 1147.4 164.32H1150.24C1150.8 164.32 1151.35 164.092 1151.75 163.687C1152.15 163.282 1152.37 162.733 1152.37 162.16V157.52C1152.37 156.947 1152.15 156.398 1151.75 155.993C1151.35 155.588 1150.8 155.36 1150.24 155.36H1147.4C1147.23 155.36 1147.06 155.428 1146.94 155.55C1146.82 155.672 1146.75 155.838 1146.75 156.01Z" fill="#E71D1D"/>
<path d="M1040.82 230.57H1035.73C1035.59 230.57 1035.47 230.516 1035.37 230.421C1035.27 230.325 1035.22 230.195 1035.22 230.06V197.77C1035.22 197.635 1035.27 197.505 1035.37 197.409C1035.47 197.314 1035.59 197.26 1035.73 197.26H1048.81C1048.95 197.26 1049.08 197.314 1049.17 197.409C1049.27 197.505 1049.32 197.635 1049.32 197.77V202.03C1049.32 202.165 1049.27 202.295 1049.17 202.391C1049.08 202.486 1048.95 202.54 1048.81 202.54H1041.83C1041.69 202.54 1041.57 202.594 1041.47 202.689C1041.37 202.785 1041.32 202.915 1041.32 203.05V210.13C1041.32 210.265 1041.37 210.395 1041.47 210.491C1041.57 210.586 1041.69 210.64 1041.83 210.64H1050.22C1050.36 210.64 1050.48 210.694 1050.58 210.789C1050.68 210.885 1050.73 211.015 1050.73 211.15V215.61C1050.73 215.745 1050.68 215.875 1050.58 215.971C1050.48 216.066 1050.36 216.12 1050.22 216.12H1041.84C1041.7 216.12 1041.58 216.174 1041.48 216.269C1041.38 216.365 1041.33 216.495 1041.33 216.63V230.06C1041.33 230.195 1041.28 230.325 1041.18 230.421C1041.09 230.516 1040.96 230.57 1040.82 230.57Z" fill="#E71D1D"/>
<path d="M1063.34 225.77C1064 225.763 1064.5 225.693 1064.83 225.56C1065.37 225.347 1065.83 224.977 1066.15 224.498C1066.48 224.019 1066.66 223.452 1066.66 222.87C1066.71 215.257 1066.71 206.97 1066.68 198.01C1066.68 197.903 1066.7 197.797 1066.74 197.698C1066.78 197.599 1066.84 197.509 1066.92 197.434C1067 197.358 1067.09 197.299 1067.19 197.259C1067.29 197.219 1067.39 197.199 1067.5 197.2H1072.05C1072.26 197.2 1072.46 197.282 1072.61 197.428C1072.75 197.574 1072.84 197.772 1072.84 197.98C1072.91 208.48 1072.9 216.91 1072.79 223.27C1072.69 229.02 1068.44 231.28 1063.34 231.28C1058.25 231.28 1053.99 229.02 1053.89 223.27C1053.78 216.917 1053.75 208.49 1053.82 197.99C1053.82 197.782 1053.91 197.584 1054.05 197.438C1054.2 197.292 1054.4 197.21 1054.61 197.21H1059.16C1059.37 197.21 1059.58 197.295 1059.73 197.447C1059.88 197.599 1059.97 197.805 1059.97 198.02C1059.94 206.973 1059.96 215.257 1060.02 222.87C1060.03 223.452 1060.2 224.019 1060.53 224.498C1060.85 224.977 1061.31 225.347 1061.85 225.56C1062.18 225.7 1062.68 225.77 1063.34 225.77Z" fill="#E71D1D"/>
<path d="M1085.64 230.49C1084.07 230.497 1083.25 230.497 1083.18 230.49C1083.02 230.475 1082.87 230.401 1082.77 230.283C1082.66 230.164 1082.6 230.01 1082.6 229.85L1082.44 203.18C1082.44 203.088 1082.42 202.997 1082.39 202.912C1082.35 202.827 1082.3 202.75 1082.23 202.685C1082.17 202.62 1082.09 202.568 1082.01 202.533C1081.92 202.498 1081.83 202.48 1081.74 202.48L1075.73 202.51C1075.66 202.51 1075.59 202.482 1075.54 202.431C1075.49 202.38 1075.46 202.312 1075.46 202.24L1075.44 197.66C1075.44 197.587 1075.47 197.518 1075.52 197.465C1075.57 197.413 1075.64 197.383 1075.71 197.38C1078.88 197.32 1082.13 197.257 1085.47 197.19C1088.81 197.223 1092.06 197.257 1095.23 197.29C1095.3 197.29 1095.37 197.318 1095.42 197.368C1095.48 197.419 1095.51 197.487 1095.51 197.56L1095.54 202.14C1095.54 202.212 1095.51 202.28 1095.46 202.331C1095.41 202.382 1095.34 202.41 1095.27 202.41L1089.25 202.44C1089.16 202.441 1089.07 202.461 1088.98 202.497C1088.9 202.533 1088.82 202.586 1088.76 202.652C1088.69 202.718 1088.64 202.796 1088.61 202.881C1088.58 202.967 1088.56 203.058 1088.56 203.15L1088.67 229.82C1088.67 229.978 1088.61 230.131 1088.51 230.249C1088.4 230.368 1088.26 230.443 1088.1 230.46C1088.03 230.467 1087.21 230.477 1085.64 230.49Z" fill="#E71D1D"/>
<path d="M1107.84 225.71C1108.5 225.71 1109 225.643 1109.33 225.51C1109.86 225.297 1110.32 224.927 1110.65 224.447C1110.97 223.968 1111.15 223.401 1111.15 222.82C1111.21 215.227 1111.22 206.967 1111.19 198.04C1111.19 197.825 1111.28 197.619 1111.43 197.467C1111.58 197.315 1111.79 197.23 1112 197.23H1116.54C1116.75 197.23 1116.95 197.312 1117.1 197.458C1117.24 197.604 1117.33 197.802 1117.33 198.01C1117.4 208.477 1117.38 216.88 1117.27 223.22C1117.17 228.96 1112.92 231.21 1107.84 231.21C1102.76 231.21 1098.52 228.95 1098.42 223.22C1098.31 216.88 1098.29 208.477 1098.36 198.01C1098.36 197.802 1098.45 197.604 1098.59 197.458C1098.74 197.312 1098.94 197.23 1099.15 197.23H1103.69C1103.9 197.23 1104.11 197.315 1104.26 197.467C1104.41 197.619 1104.5 197.825 1104.5 198.04C1104.47 206.967 1104.48 215.227 1104.53 222.82C1104.53 223.403 1104.71 223.97 1105.04 224.449C1105.36 224.929 1105.82 225.298 1106.36 225.51C1106.69 225.643 1107.19 225.71 1107.84 225.71Z" fill="#E71D1D"/>
<path d="M1127.95 216.81C1127.92 216.789 1127.88 216.776 1127.84 216.775C1127.8 216.773 1127.76 216.782 1127.73 216.8C1127.69 216.818 1127.66 216.846 1127.64 216.879C1127.62 216.912 1127.61 216.951 1127.61 216.99L1127.59 229.92C1127.59 230.079 1127.53 230.232 1127.42 230.344C1127.31 230.457 1127.16 230.52 1127 230.52H1122.13C1122.05 230.52 1121.97 230.504 1121.9 230.474C1121.82 230.443 1121.76 230.398 1121.7 230.341C1121.64 230.285 1121.6 230.217 1121.57 230.143C1121.54 230.069 1121.52 229.99 1121.52 229.91L1121.56 197.61C1121.56 197.537 1121.59 197.468 1121.64 197.415C1121.69 197.363 1121.76 197.333 1121.83 197.33C1126.76 197.163 1130.51 197.153 1133.07 197.3C1140.71 197.75 1139.23 205.05 1139.28 210.24C1139.29 212.353 1137.81 214.147 1134.84 215.62C1134.72 215.679 1134.63 215.782 1134.59 215.905C1134.54 216.029 1134.55 216.164 1134.61 216.28L1141.58 230.34C1141.59 230.359 1141.6 230.38 1141.6 230.402C1141.6 230.423 1141.59 230.444 1141.58 230.463C1141.57 230.481 1141.55 230.496 1141.53 230.506C1141.51 230.516 1141.49 230.521 1141.47 230.52L1135.12 230.51C1135.04 230.51 1134.96 230.487 1134.89 230.445C1134.82 230.402 1134.77 230.342 1134.73 230.27C1131.87 224.41 1128.99 217.55 1127.95 216.81ZM1127.64 203.13L1127.62 210.47C1127.62 210.695 1127.71 210.912 1127.87 211.071C1128.03 211.23 1128.24 211.32 1128.47 211.32H1130.81C1131.13 211.321 1131.45 211.255 1131.74 211.125C1132.04 210.995 1132.31 210.804 1132.53 210.562C1132.76 210.32 1132.94 210.033 1133.06 209.717C1133.19 209.401 1133.25 209.062 1133.25 208.72V204.88C1133.25 204.192 1133 203.532 1132.54 203.045C1132.09 202.558 1131.47 202.283 1130.83 202.28H1128.49C1128.26 202.28 1128.05 202.37 1127.89 202.529C1127.73 202.688 1127.64 202.905 1127.64 203.13Z" fill="#E71D1D"/>
<path d="M1149.63 224.86C1149.63 224.919 1149.64 224.977 1149.66 225.031C1149.68 225.086 1149.72 225.136 1149.76 225.178C1149.8 225.219 1149.85 225.253 1149.91 225.275C1149.96 225.298 1150.02 225.31 1150.08 225.31L1158.27 225.21C1158.39 225.209 1158.5 225.23 1158.61 225.273C1158.72 225.316 1158.82 225.38 1158.9 225.461C1158.99 225.541 1159.05 225.638 1159.1 225.744C1159.14 225.85 1159.17 225.964 1159.17 226.08L1159.21 229.76C1159.21 229.863 1159.19 229.966 1159.15 230.062C1159.12 230.157 1159.06 230.245 1158.99 230.318C1158.92 230.392 1158.83 230.45 1158.74 230.49C1158.64 230.53 1158.54 230.55 1158.44 230.55L1144.07 230.53C1144 230.53 1143.94 230.516 1143.87 230.489C1143.81 230.463 1143.75 230.424 1143.71 230.374C1143.66 230.325 1143.62 230.266 1143.6 230.202C1143.57 230.138 1143.56 230.069 1143.56 230L1143.54 197.85C1143.54 197.688 1143.6 197.533 1143.72 197.419C1143.83 197.304 1143.99 197.24 1144.15 197.24L1158.04 197.28C1158.13 197.28 1158.21 197.297 1158.29 197.329C1158.37 197.361 1158.44 197.408 1158.5 197.467C1158.56 197.527 1158.61 197.597 1158.64 197.675C1158.67 197.753 1158.69 197.836 1158.69 197.92L1158.66 201.83C1158.66 202.018 1158.58 202.199 1158.45 202.332C1158.31 202.465 1158.13 202.54 1157.94 202.54L1150.05 202.52C1149.95 202.52 1149.85 202.56 1149.78 202.631C1149.71 202.703 1149.67 202.799 1149.67 202.9L1149.63 210.29C1149.63 210.337 1149.64 210.383 1149.65 210.427C1149.67 210.471 1149.7 210.51 1149.73 210.544C1149.77 210.577 1149.81 210.604 1149.85 210.622C1149.89 210.641 1149.94 210.65 1149.99 210.65L1157.69 210.66C1157.82 210.66 1157.95 210.686 1158.08 210.738C1158.2 210.789 1158.31 210.865 1158.4 210.96C1158.5 211.055 1158.57 211.168 1158.62 211.291C1158.67 211.415 1158.69 211.547 1158.69 211.68L1158.66 215.21C1158.66 215.34 1158.63 215.468 1158.58 215.588C1158.53 215.708 1158.45 215.816 1158.36 215.907C1158.27 215.998 1158.16 216.07 1158.03 216.118C1157.91 216.167 1157.78 216.191 1157.65 216.19L1150.14 216.08C1150.08 216.079 1150.02 216.089 1149.96 216.111C1149.91 216.133 1149.86 216.166 1149.82 216.208C1149.77 216.25 1149.74 216.3 1149.72 216.355C1149.69 216.411 1149.68 216.47 1149.68 216.53L1149.63 224.86Z" fill="#E71D1D"/>
</svg>
